<?xml version="1.0" encoding="UTF-8"?>
<svg width="700pt" height="700pt" version="1.1" viewBox="0 0 700 700" xmlns="http://www.w3.org/2000/svg" xmlns:xlink="http://www.w3.org/1999/xlink">
 <defs>
  <symbol id="w" overflow="visible">
   <path d="m26.047-1.5625c-1.3359 0.69922-2.7305 1.2266-4.1875 1.5781-1.4609 0.35156-2.9805 0.53125-4.5625 0.53125-4.7188 0-8.4609-1.3164-11.219-3.9531-2.7617-2.6445-4.1406-6.2227-4.1406-10.734 0-4.5391 1.3789-8.1289 4.1406-10.766 2.7578-2.6328 6.5-3.9531 11.219-3.9531 1.582 0 3.1016 0.17969 4.5625 0.53125 1.457 0.35547 2.8516 0.88281 4.1875 1.5781v5.8594c-1.3555-0.92578-2.6875-1.6016-4-2.0312-1.3125-0.42578-2.6992-0.64062-4.1562-0.64062-2.6172 0-4.668 0.83984-6.1562 2.5156-1.4922 1.668-2.2344 3.9688-2.2344 6.9062 0 2.918 0.74219 5.2148 2.2344 6.8906 1.4883 1.668 3.5391 2.5 6.1562 2.5 1.457 0 2.8438-0.21094 4.1562-0.64062 1.3125-0.42578 2.6445-1.1016 4-2.0312z"/>
  </symbol>
  <symbol id="d" overflow="visible">
   <path d="m19.062-15.469c-0.59375-0.28125-1.1875-0.48828-1.7812-0.625-0.58594-0.13281-1.1719-0.20312-1.7656-0.20312-1.75 0-3.1016 0.5625-4.0469 1.6875-0.9375 1.1172-1.4062 2.7188-1.4062 4.8125v9.7969h-6.7969v-21.266h6.7969v3.4844c0.875-1.3828 1.8789-2.3945 3.0156-3.0312 1.1328-0.64453 2.4883-0.96875 4.0625-0.96875 0.22656 0 0.47266 0.011719 0.73438 0.03125 0.26953 0.023438 0.66016 0.0625 1.1719 0.125z"/>
  </symbol>
  <symbol id="b" overflow="visible">
   <path d="m24.5-10.688v1.9375h-15.891c0.15625 1.5938 0.72656 2.793 1.7188 3.5938 0.98828 0.79297 2.3672 1.1875 4.1406 1.1875 1.4258 0 2.8906-0.20703 4.3906-0.625 1.5-0.42578 3.0391-1.0703 4.625-1.9375v5.2344c-1.6055 0.61719-3.2148 1.0742-4.8281 1.375-1.6055 0.3125-3.2109 0.46875-4.8125 0.46875-3.8438 0-6.8359-0.97266-8.9688-2.9219-2.1367-1.957-3.2031-4.7031-3.2031-8.2344 0-3.4688 1.0469-6.1953 3.1406-8.1875 2.0938-1.9883 4.9766-2.9844 8.6562-2.9844 3.3438 0 6.0156 1.0078 8.0156 3.0156 2.0078 2.0117 3.0156 4.7031 3.0156 8.0781zm-6.9844-2.2656c0-1.2891-0.38281-2.332-1.1406-3.125-0.75-0.78906-1.7344-1.1875-2.9531-1.1875-1.3125 0-2.3828 0.37109-3.2031 1.1094-0.82422 0.74219-1.3398 1.8086-1.5469 3.2031z"/>
  </symbol>
  <symbol id="f" overflow="visible">
   <path d="m12.797-9.5781c-1.418 0-2.4844 0.24609-3.2031 0.73438-0.71094 0.48047-1.0625 1.1875-1.0625 2.125 0 0.85547 0.28516 1.5273 0.85938 2.0156 0.57031 0.49219 1.375 0.73438 2.4062 0.73438 1.2695 0 2.3438-0.45703 3.2188-1.375 0.875-0.91406 1.3125-2.0664 1.3125-3.4531v-0.78125zm10.391-2.5625v12.141h-6.8594v-3.1562c-0.90625 1.293-1.9336 2.2344-3.0781 2.8281-1.1367 0.58203-2.5234 0.875-4.1562 0.875-2.1992 0-3.9844-0.64062-5.3594-1.9219s-2.0625-2.9453-2.0625-5c0-2.5 0.85156-4.3281 2.5625-5.4844 1.7188-1.1641 4.4141-1.75 8.0938-1.75h4v-0.53125c0-1.082-0.42969-1.875-1.2812-2.375-0.84375-0.5-2.1641-0.75-3.9531-0.75-1.4609 0-2.8203 0.14844-4.0781 0.4375-1.25 0.29297-2.4141 0.73047-3.4844 1.3125v-5.1875c1.457-0.35156 2.9219-0.61719 4.3906-0.79688 1.4688-0.1875 2.9375-0.28125 4.4062-0.28125 3.832 0 6.5977 0.75781 8.2969 2.2656 1.707 1.5117 2.5625 3.9688 2.5625 7.375z"/>
  </symbol>
  <symbol id="a" overflow="visible">
   <path d="m10.688-27.312v6.0469h7.0156v4.8594h-7.0156v9.0156c0 0.99219 0.19531 1.6641 0.59375 2.0156 0.39453 0.34375 1.1719 0.51562 2.3281 0.51562h3.5v4.8594h-5.8281c-2.6875 0-4.5938-0.55469-5.7188-1.6719-1.1172-1.125-1.6719-3.0312-1.6719-5.7188v-9.0156h-3.375v-4.8594h3.375v-6.0469z"/>
  </symbol>
  <symbol id="n" overflow="visible">
   <path d="m17.734-18.156v-11.391h6.8438v29.547h-6.8438v-3.0781c-0.9375 1.25-1.9688 2.168-3.0938 2.75s-2.4297 0.875-3.9062 0.875c-2.625 0-4.7812-1.0391-6.4688-3.125-1.6797-2.082-2.5156-4.7578-2.5156-8.0312 0-3.2812 0.83594-5.9609 2.5156-8.0469 1.6875-2.082 3.8438-3.125 6.4688-3.125 1.4688 0 2.7656 0.29688 3.8906 0.89062 1.1328 0.58594 2.1719 1.4961 3.1094 2.7344zm-4.4844 13.766c1.457 0 2.5664-0.53125 3.3281-1.5938 0.76953-1.0625 1.1562-2.6016 1.1562-4.625 0-2.0312-0.38672-3.5781-1.1562-4.6406-0.76172-1.0625-1.8711-1.5938-3.3281-1.5938-1.4375 0-2.543 0.53125-3.3125 1.5938-0.76172 1.0625-1.1406 2.6094-1.1406 4.6406 0 2.0234 0.37891 3.5625 1.1406 4.625 0.76953 1.0625 1.875 1.5938 3.3125 1.5938z"/>
  </symbol>
  <symbol id="m" overflow="visible">
   <path d="m14.578-4.3906c1.457 0 2.5664-0.53125 3.3281-1.5938 0.76953-1.0625 1.1562-2.6016 1.1562-4.625 0-2.0312-0.38672-3.5781-1.1562-4.6406-0.76172-1.0625-1.8711-1.5938-3.3281-1.5938-1.4492 0-2.5625 0.53906-3.3438 1.6094-0.78125 1.0625-1.1719 2.6055-1.1719 4.625 0 2.0117 0.39062 3.5547 1.1719 4.625 0.78125 1.0625 1.8945 1.5938 3.3438 1.5938zm-4.5156-13.766c0.9375-1.2383 1.9727-2.1484 3.1094-2.7344 1.1445-0.59375 2.457-0.89062 3.9375-0.89062 2.625 0 4.7734 1.043 6.4531 3.125 1.6875 2.0859 2.5312 4.7656 2.5312 8.0469 0 3.2734-0.84375 5.9492-2.5312 8.0312-1.6797 2.0859-3.8281 3.125-6.4531 3.125-1.4805 0-2.793-0.29297-3.9375-0.875-1.1367-0.59375-2.1719-1.5078-3.1094-2.75v3.0781h-6.7969v-29.547h6.7969z"/>
  </symbol>
  <symbol id="l" overflow="visible">
   <path d="m0.46875-21.266h6.7969l5.7188 14.422 4.8594-14.422h6.8125l-8.9531 23.281c-0.89844 2.3633-1.9453 4.0156-3.1406 4.9531-1.1992 0.94531-2.7773 1.4219-4.7344 1.4219h-3.9375v-4.4531h2.125c1.1562 0 1.9922-0.1875 2.5156-0.5625 0.53125-0.36719 0.94141-1.0234 1.2344-1.9688l0.1875-0.59375z"/>
  </symbol>
  <symbol id="e" overflow="visible">
   <path d="m23.297-27.453v6c-1.5547-0.69531-3.0742-1.2227-4.5625-1.5781-1.4805-0.35156-2.875-0.53125-4.1875-0.53125-1.75 0-3.043 0.24219-3.875 0.71875-0.83594 0.48047-1.25 1.2266-1.25 2.2344 0 0.76172 0.28125 1.3555 0.84375 1.7812 0.5625 0.42969 1.582 0.79297 3.0625 1.0938l3.1094 0.625c3.1562 0.63672 5.3945 1.6016 6.7188 2.8906 1.332 1.293 2 3.125 2 5.5 0 3.125-0.92969 5.4531-2.7812 6.9844-1.8555 1.5234-4.6875 2.2812-8.5 2.2812-1.793 0-3.5938-0.17188-5.4062-0.51562-1.8125-0.33203-3.625-0.83594-5.4375-1.5156v-6.1719c1.8125 0.96875 3.5625 1.6992 5.25 2.1875 1.6953 0.48047 3.3281 0.71875 4.8906 0.71875 1.6016 0 2.8281-0.26562 3.6719-0.79688s1.2656-1.2891 1.2656-2.2812c0-0.88281-0.28906-1.5664-0.85938-2.0469-0.57422-0.47656-1.7188-0.91016-3.4375-1.2969l-2.8438-0.625c-2.8359-0.60156-4.9062-1.5664-6.2188-2.8906-1.3047-1.332-1.9531-3.1289-1.9531-5.3906 0-2.8203 0.91016-4.9883 2.7344-6.5 1.8203-1.5195 4.4414-2.2812 7.8594-2.2812 1.5508 0 3.1484 0.12109 4.7969 0.35938 1.6445 0.23047 3.3477 0.57812 5.1094 1.0469z"/>
  </symbol>
  <symbol id="k" overflow="visible">
   <path d="m22.984-17.734c0.85156-1.3203 1.8672-2.3281 3.0469-3.0156 1.1875-0.6875 2.4922-1.0312 3.9219-1.0312 2.4375 0 4.2969 0.75781 5.5781 2.2656 1.2812 1.5 1.9219 3.6875 1.9219 6.5625v12.953h-6.8438v-11.094c0.007813-0.16406 0.019531-0.33594 0.03125-0.51562 0.007813-0.17578 0.015625-0.42578 0.015625-0.75 0-1.5078-0.22656-2.6016-0.67188-3.2812-0.44922-0.67578-1.1641-1.0156-2.1406-1.0156-1.293 0-2.293 0.53125-3 1.5938-0.69922 1.0625-1.0625 2.6055-1.0938 4.625v10.438h-6.8281v-11.094c0-2.3516-0.20312-3.8672-0.60938-4.5469-0.40625-0.67578-1.1328-1.0156-2.1719-1.0156-1.3047 0-2.3086 0.53906-3.0156 1.6094-0.71094 1.0742-1.0625 2.6016-1.0625 4.5781v10.469h-6.8281v-21.266h6.8281v3.1094c0.83203-1.1953 1.7891-2.0977 2.875-2.7031 1.082-0.61328 2.2734-0.92188 3.5781-0.92188 1.4688 0 2.7656 0.35547 3.8906 1.0625 1.1328 0.71094 1.9922 1.7031 2.5781 2.9844z"/>
  </symbol>
  <symbol id="j" overflow="visible">
   <path d="m19.875-20.609v5.1719c-1.4492-0.60156-2.8516-1.0547-4.2031-1.3594-1.3555-0.3125-2.6367-0.46875-3.8438-0.46875-1.293 0-2.25 0.16406-2.875 0.48438-0.625 0.32422-0.9375 0.82422-0.9375 1.5 0 0.54297 0.23438 0.96094 0.70312 1.25 0.47656 0.29297 1.332 0.50781 2.5625 0.64062l1.1875 0.17188c3.4883 0.44922 5.832 1.1797 7.0312 2.1875 1.207 1.0117 1.8125 2.6016 1.8125 4.7656 0 2.2617-0.83984 3.9648-2.5156 5.1094-1.668 1.1367-4.1641 1.7031-7.4844 1.7031-1.4062 0-2.8594-0.10938-4.3594-0.32812s-3.043-0.55078-4.625-1v-5.1562c1.3633 0.65625 2.7539 1.1523 4.1719 1.4844 1.4258 0.32422 2.875 0.48438 4.3438 0.48438 1.332 0 2.332-0.17969 3-0.54688 0.66406-0.36328 1-0.91016 1-1.6406 0-0.60156-0.23047-1.0508-0.6875-1.3438-0.46094-0.30078-1.3828-0.53516-2.7656-0.70312l-1.1875-0.15625c-3.0312-0.375-5.1562-1.0703-6.375-2.0938-1.2109-1.0312-1.8125-2.5938-1.8125-4.6875 0-2.25 0.76953-3.9141 2.3125-5 1.5391-1.0938 3.9102-1.6406 7.1094-1.6406 1.25 0 2.5625 0.09375 3.9375 0.28125 1.3828 0.1875 2.8828 0.48438 4.5 0.89062z"/>
  </symbol>
  <symbol id="i" overflow="visible">
   <path d="m24.656-12.953v12.953h-6.8438v-9.875c0-1.8633-0.042969-3.1406-0.125-3.8281-0.085938-0.69531-0.22656-1.2109-0.42188-1.5469-0.27344-0.4375-0.63672-0.78125-1.0938-1.0312-0.44922-0.25-0.96484-0.375-1.5469-0.375-1.418 0-2.5312 0.54688-3.3438 1.6406s-1.2188 2.6094-1.2188 4.5469v10.469h-6.7969v-29.547h6.7969v11.391c1.0312-1.2383 2.1172-2.1484 3.2656-2.7344 1.1562-0.59375 2.4258-0.89062 3.8125-0.89062 2.457 0 4.3203 0.75781 5.5938 2.2656 1.2812 1.5 1.9219 3.6875 1.9219 6.5625z"/>
  </symbol>
  <symbol id="v" overflow="visible">
   <path d="m3.2656-21.266h6.7969v21.266h-6.7969zm0-8.2812h6.7969v5.5469h-6.7969z"/>
  </symbol>
  <symbol id="h" overflow="visible">
   <path d="m24.656-12.953v12.953h-6.8438v-9.9062c0-1.8438-0.042969-3.1094-0.125-3.7969-0.085938-0.69531-0.22656-1.2109-0.42188-1.5469-0.27344-0.4375-0.63672-0.78125-1.0938-1.0312-0.44922-0.25-0.96484-0.375-1.5469-0.375-1.418 0-2.5312 0.54688-3.3438 1.6406s-1.2188 2.6094-1.2188 4.5469v10.469h-6.7969v-21.266h6.7969v3.1094c1.0312-1.2383 2.1172-2.1484 3.2656-2.7344 1.1562-0.59375 2.4258-0.89062 3.8125-0.89062 2.457 0 4.3203 0.75781 5.5938 2.2656 1.2812 1.5 1.9219 3.6875 1.9219 6.5625z"/>
  </symbol>
  <symbol id="u" overflow="visible">
   <path d="m17.734-3.6094c-0.9375 1.2422-1.9688 2.1523-3.0938 2.7344-1.125 0.58594-2.4297 0.875-3.9062 0.875-2.5938 0-4.7422-1.0195-6.4375-3.0625-1.6992-2.0508-2.5469-4.6562-2.5469-7.8125 0-3.1758 0.84766-5.7812 2.5469-7.8125 1.6953-2.0391 3.8438-3.0625 6.4375-3.0625 1.4766 0 2.7812 0.29297 3.9062 0.875 1.125 0.58594 2.1562 1.5078 3.0938 2.7656v-3.1562h6.8438v19.125c0 3.4141-1.0859 6.0234-3.25 7.8281-2.1562 1.8008-5.2891 2.7031-9.3906 2.7031-1.3242 0-2.6055-0.10547-3.8438-0.3125-1.2422-0.19922-2.4922-0.50781-3.75-0.92188v-5.2969c1.1953 0.6875 2.3633 1.1953 3.5 1.5312 1.1328 0.33203 2.2812 0.5 3.4375 0.5 2.2266 0 3.8594-0.49219 4.8906-1.4688 1.0391-0.96875 1.5625-2.4883 1.5625-4.5625zm-4.4844-13.234c-1.4062 0-2.5 0.52344-3.2812 1.5625-0.78125 1.0312-1.1719 2.5-1.1719 4.4062 0 1.9492 0.37891 3.4297 1.1406 4.4375 0.75781 1 1.8633 1.5 3.3125 1.5 1.4141 0 2.5156-0.51562 3.2969-1.5469 0.78906-1.0391 1.1875-2.5039 1.1875-4.3906 0-1.9062-0.39844-3.375-1.1875-4.4062-0.78125-1.0391-1.8828-1.5625-3.2969-1.5625z"/>
  </symbol>
  <symbol id="c" overflow="visible">
   <path d="m13.391-16.922c-1.5117 0-2.6641 0.54297-3.4531 1.625-0.79297 1.0859-1.1875 2.6484-1.1875 4.6875 0 2.0312 0.39453 3.5898 1.1875 4.6719 0.78906 1.0859 1.9414 1.625 3.4531 1.625 1.4766 0 2.6094-0.53906 3.3906-1.625 0.78906-1.082 1.1875-2.6406 1.1875-4.6719 0-2.0391-0.39844-3.6016-1.1875-4.6875-0.78125-1.082-1.9141-1.625-3.3906-1.625zm0-4.8594c3.6562 0 6.5078 0.99219 8.5625 2.9688 2.0625 1.9688 3.0938 4.7031 3.0938 8.2031 0 3.4922-1.0312 6.2266-3.0938 8.2031-2.0547 1.9688-4.9062 2.9531-8.5625 2.9531-3.6797 0-6.5547-0.98438-8.625-2.9531-2.0625-1.9766-3.0938-4.7109-3.0938-8.2031 0-3.5 1.0312-6.2344 3.0938-8.2031 2.0703-1.9766 4.9453-2.9688 8.625-2.9688z"/>
  </symbol>
  <symbol id="g" overflow="visible">
   <path d="m20.453-20.609v5.5469c-0.92969-0.63281-1.8555-1.1016-2.7812-1.4062-0.92969-0.30078-1.8906-0.45312-2.8906-0.45312-1.9062 0-3.3906 0.55859-4.4531 1.6719-1.0547 1.1055-1.5781 2.6523-1.5781 4.6406 0 1.9805 0.52344 3.5273 1.5781 4.6406 1.0625 1.1055 2.5469 1.6562 4.4531 1.6562 1.0625 0 2.0664-0.15625 3.0156-0.46875 0.95703-0.32031 1.8438-0.78906 2.6562-1.4062v5.5625c-1.0625 0.39844-2.1406 0.6875-3.2344 0.875-1.0938 0.19531-2.1953 0.29688-3.2969 0.29688-3.8359 0-6.8359-0.98438-9-2.9531-2.168-1.9688-3.25-4.7031-3.25-8.2031 0-3.5078 1.082-6.25 3.25-8.2188 2.1641-1.9688 5.1641-2.9531 9-2.9531 1.1133 0 2.2109 0.10156 3.2969 0.29688 1.082 0.19922 2.1602 0.49219 3.2344 0.875z"/>
  </symbol>
  <symbol id="t" overflow="visible">
   <path d="m3.2656-29.547h6.7969v16.078l7.8281-7.7969h7.8906l-10.375 9.7656 11.203 11.5h-8.25l-8.2969-8.875v8.875h-6.7969z"/>
  </symbol>
  <symbol id="s" overflow="visible">
   <path d="m17.266-29.547v4.4688h-3.7656c-0.96094 0-1.6328 0.17188-2.0156 0.51562-0.375 0.34375-0.5625 0.94922-0.5625 1.8125v1.4844h5.8125v4.8594h-5.8125v16.406h-6.7969v-16.406h-3.3906v-4.8594h3.3906v-1.4844c0-2.3125 0.64453-4.0195 1.9375-5.125 1.2891-1.1133 3.2891-1.6719 6-1.6719z"/>
  </symbol>
  <symbol id="r" overflow="visible">
   <path d="m3.5625-28.344h8.1719l10.312 19.438v-19.438h6.9375v28.344h-8.1719l-10.312-19.453v19.453h-6.9375z"/>
  </symbol>
  <symbol id="q" overflow="visible">
   <path d="m3.0312-8.2812v-12.984h6.8438v2.125c0 1.1562-0.007812 2.6055-0.015625 4.3438-0.011719 1.7422-0.015625 2.9023-0.015625 3.4844 0 1.7109 0.039062 2.9375 0.125 3.6875 0.09375 0.75 0.24219 1.2969 0.45312 1.6406 0.28125 0.44922 0.64453 0.79297 1.0938 1.0312 0.44531 0.24219 0.96094 0.35938 1.5469 0.35938 1.4141 0 2.5312-0.53906 3.3438-1.625 0.8125-1.0938 1.2188-2.6094 1.2188-4.5469v-10.5h6.7969v21.266h-6.7969v-3.0781c-1.0312 1.2422-2.1211 2.1562-3.2656 2.75-1.1484 0.58203-2.4062 0.875-3.7812 0.875-2.4609 0-4.3359-0.75-5.625-2.25-1.2812-1.5078-1.9219-3.7031-1.9219-6.5781z"/>
  </symbol>
  <symbol id="p" overflow="visible">
   <path d="m3.5625-28.344h12.141c3.6016 0 6.3672 0.80469 8.2969 2.4062 1.9375 1.5938 2.9062 3.8711 2.9062 6.8281 0 2.9805-0.96875 5.2734-2.9062 6.875-1.9297 1.5938-4.6953 2.3906-8.2969 2.3906h-4.8281v9.8438h-7.3125zm7.3125 5.2969v7.9062h4.0469c1.4141 0 2.5078-0.34375 3.2812-1.0312 0.78125-0.6875 1.1719-1.6641 1.1719-2.9375 0-1.2578-0.39062-2.2266-1.1719-2.9062-0.77344-0.6875-1.8672-1.0312-3.2812-1.0312z"/>
  </symbol>
  <symbol id="o" overflow="visible">
   <path d="m3.2656-21.266h6.7969v20.891c0 2.8438-0.68359 5.0156-2.0469 6.5156-1.3672 1.5-3.3516 2.25-5.9531 2.25h-3.3594v-4.4531h1.1875c1.2891 0 2.1758-0.29297 2.6562-0.875 0.47656-0.58594 0.71875-1.7305 0.71875-3.4375zm0-8.2812h6.7969v5.5469h-6.7969z"/>
  </symbol>
 </defs>
 <g>
  <path d="m576.88 447.41c-4.0469-24.652-15.535-47.254-32.449-65.469l-46.543-225.96c-6.7227-32.883-23.75-61.797-49.195-83.727-9.3047-15.117-23.719-26.82-41.215-32.293-38.098-11.781-76.805-11.789-115.03 0.007812-17.406 5.4453-31.77 17.07-41.078 32.137-25.066 21.551-42.586 51.273-49.336 83.871l-46.562 225.99c-16.906 18.219-28.363 40.82-32.355 65.457-0.36328 2.2266 0.59375 4.457 2.4453 5.7344 75.508 52.086 162.27 83.543 254.23 74.039 54.156-4.4023 121.76-25.887 194.54-73.973 1.9258-1.2695 2.9219-3.5508 2.5469-5.8125zm-90.414-289.09 43.23 209.89c-4.0742-3.2148-8.3086-6.2617-12.805-9.0156-23.789-14.379-47.996-25.93-64.145-33.094-7.1875-3.1523-13.184-5.6602-17.828-7.5625 0.75781-0.85938 1.5977-1.625 2.3242-2.5195 25.5-31.41 25.953-75.09 23.82-99.062 14.148-2.1992 25.047-14.383 25.047-29.172 0-15.555-12.113-28.203-27.383-29.34v-6.3594c0.78125-1.0117 1.3438-2.168 1.3438-3.4766 0-9.0664-0.007812-41.008-0.007812-38.988-0.12891-3.3516-0.51953-6.6445-1.0664-9.8867 13.598 16.977 23.016 36.812 27.469 58.586zm-136.47 271.3c-12.441-10.184-54.258-47.426-62.559-92.77 16.863 9.6484 37.762 14.574 62.574 14.574 24.738 0 45.594-4.8867 62.43-14.48-8.4141 45.25-50.043 82.48-62.445 92.676zm108.74-229.88v-29.633c8.832 1.0898 15.715 8.5547 15.715 17.676 0 8.6914-6.1836 15.953-14.746 17.617-0.46484-3.0469-0.84766-5.0625-0.96875-5.6602zm-11.668-47.645v47.941c-7.1055 21.516-21.68 51.578-32.797 53.082-3.0625 0.41016-6.2812-1.9961-9.6445-7.1172-10.898-16.605-20.684-25.27-30.801-27.262-10.125-2.0117-17.934 3.3633-23.645 7.2773-0.054688 0.039062-0.10547 0.074219-0.16797 0.11328-0.054688-0.039062-0.10547-0.074219-0.16797-0.11328-5.7031-3.9102-13.543-9.2812-23.637-7.2773-10.117 1.9883-19.898 10.648-30.809 27.262-3.3633 5.1289-6.6094 7.5664-9.6445 7.1172-11.129-1.5039-25.727-31.629-32.82-53.148v-47.891c61.996-24.184 132.12-24.184 194.13 0.015625zm-205.8 47.762c-0.13672 0.67969-0.50391 2.6289-0.95312 5.5703-8.418-1.4883-14.84-8.8125-14.84-17.648 0-9.125 6.918-16.59 15.789-17.676zm8.9023 25.242c7.7227 17.234 19.758 37.66 34.02 39.582 5.4062 0.75391 13.43-0.79687 20.965-12.273 8.8203-13.438 16.664-20.91 23.309-22.215 5.3398-1.0312 9.918 2.1172 14.789 5.4531 1.2539 0.86719 2.4766 1.7031 3.6758 2.4453 1.8828 1.168 4.2852 1.168 6.168 0 1.1992-0.74609 2.4219-1.5859 3.6836-2.4453 4.8672-3.3359 9.4805-6.4922 14.789-5.4531 6.6445 1.3125 14.484 8.7812 23.305 22.211 7.5352 11.484 15.555 13.035 20.965 12.281 14.266-1.9297 26.297-22.348 34.02-39.582 1.1094 23.023-1.2461 58.441-21.691 83.602-16.746 20.605-43.043 31.051-78.148 31.051s-61.395-10.445-78.141-31.051c-20.461-25.16-22.816-60.578-21.707-83.605zm45.75-174c35.289-10.906 71.68-11.289 108.1-0.007813 25.477 7.9688 43.301 31.613 44.395 58.863v30.078c-63.012-23.75-133.82-23.758-196.87 0l-0.007813-29.973c1.0469-27.297 18.891-50.996 44.383-58.961zm-82.457 107.22c4.4453-21.461 14.023-41.523 27.5-58.516-0.55469 3.2891-0.95313 6.6289-1.082 10.031v38.766c0 1.332 0.58203 2.5039 1.3906 3.5234v6.3125c-15.312 1.1367-27.457 13.785-27.457 29.34 0 14.801 10.941 26.992 25.148 29.176-2.125 23.973-1.6758 67.648 23.82 99.059 0.72266 0.89062 1.5664 1.6523 2.3203 2.5117-27.719 11.289-56.695 25.301-82.094 40.676-4.4883 2.75-8.7188 5.793-12.789 9.0039zm165.26 357.25c-88.191 9.0664-170.95-20.668-243.44-69.91 6.168-31.5 25.621-59.23 53.793-76.488 26.215-15.863 56.914-30.539 85.121-41.727 0.13281 0.11328 0.26563 0.22266 0.39844 0.33203 3.9805 57.262 57.582 102.67 69.543 112.11v8.1719h-10.18c-3.2188 0-5.832 2.6133-5.832 5.832s2.6133 5.832 5.832 5.832h10.18v36.52c0 3.2188 2.6133 5.832 5.832 5.832s5.832-2.6133 5.832-5.832v-36.52h10.184c3.2188 0 5.832-2.6133 5.832-5.832s-2.6133-5.832-5.832-5.832h-10.184v-8.1172c11.785-9.3008 65.496-54.801 69.527-112.07 0.16797-0.13672 0.33203-0.27734 0.5-0.41797 29.02 11.539 59.383 26.223 85.004 41.707 28.141 17.242 47.617 44.941 53.867 76.426-69.824 45.477-134.39 65.785-185.98 69.988z"/>
  <path d="m302.02 167.18c-7.5586 0-14.309 3.8906-18.062 10.414-1.6016 2.7969-0.63672 6.3555 2.1484 7.9688 2.8008 1.5938 6.3633 0.64453 7.9688-2.1484 3.2812-5.7266 12.609-5.7266 15.891 0 1.0781 1.875 3.0469 2.9258 5.0664 2.9258 0.98828 0 1.9805-0.25 2.9023-0.77344 2.7891-1.6094 3.7539-5.1719 2.1484-7.9688-3.7539-6.5312-10.504-10.418-18.062-10.418z"/>
  <path d="m382.09 185.56c2.8008 1.5938 6.3555 0.64453 7.9688-2.1484 3.2734-5.7266 12.594-5.7266 15.883 0 1.0781 1.875 3.0469 2.9258 5.0664 2.9258 0.98828 0 1.9805-0.25 2.9023-0.77344 2.7891-1.6094 3.7539-5.1719 2.1484-7.9688-3.7539-6.5234-10.504-10.414-18.055-10.414-7.5586 0-14.309 3.8906-18.062 10.414-1.6016 2.793-0.63672 6.3555 2.1484 7.9648z"/>
  <path d="m337.74 205.82c-2.2695 2.2852-2.2578 5.9844 0.03125 8.25 3.3789 3.3477 7.8164 5.0195 12.25 5.0195 4.4297 0 8.8633-1.6719 12.242-5.0195 2.2852-2.2617 2.3008-5.9609 0.03125-8.25-2.2617-2.2773-5.9531-2.3086-8.25-0.03125-2.2266 2.2031-5.8477 2.1875-8.0586 0-2.3008-2.2773-5.9922-2.2461-8.2461 0.03125z"/>
  <path d="m350.01 287.34c18.898 0 34.277-15.344 34.277-34.469 0-2.0352-1.0547-3.918-2.7969-4.9844-1.7305-1.0469-3.9023-1.1406-5.7031-0.20703-17.348 8.918-34.211 8.918-51.559 0-1.8008-0.93359-3.9648-0.71484-5.7031 0.34375-1.7383 1.0625-2.7969 3.082-2.7969 5.1211 0.003906 18.852 15.383 34.195 34.281 34.195zm20.547-24.785c-3.5859 7.7383-11.445 13.117-20.547 13.117-9.0977 0-16.961-5.3789-20.547-13.117 13.68 4.6172 27.43 4.6172 41.094 0z"/>
  <path d="m331.02 81.316h13.125v24.031c0 3.2188 2.6133 5.832 5.832 5.832s5.832-2.6133 5.832-5.832v-24.031h13.125c3.2188 0 5.832-2.6133 5.832-5.832s-2.6133-5.832-5.832-5.832h-13.125v-8.3828c0-3.2188-2.6133-5.832-5.832-5.832s-5.832 2.6133-5.832 5.832v8.3789h-13.125c-3.2188 0-5.832 2.6133-5.832 5.832-0.003906 3.2227 2.6094 5.8359 5.832 5.8359z"/>
  <use x="70" y="676.667969" xlink:href="#w"/>
  <use x="98.539063" y="676.667969" xlink:href="#d"/>
  <use x="117.71875" y="676.667969" xlink:href="#b"/>
  <use x="144.09375" y="676.667969" xlink:href="#f"/>
  <use x="170.335938" y="676.667969" xlink:href="#a"/>
  <use x="188.925781" y="676.667969" xlink:href="#b"/>
  <use x="215.300781" y="676.667969" xlink:href="#n"/>
  <use x="256.679688" y="676.667969" xlink:href="#m"/>
  <use x="284.515625" y="676.667969" xlink:href="#l"/>
  <use x="323.40625" y="676.667969" xlink:href="#e"/>
  <use x="351.414063" y="676.667969" xlink:href="#k"/>
  <use x="391.933594" y="676.667969" xlink:href="#f"/>
  <use x="418.175781" y="676.667969" xlink:href="#j"/>
  <use x="441.324219" y="676.667969" xlink:href="#i"/>
  <use x="469.011719" y="676.667969" xlink:href="#v"/>
  <use x="482.339844" y="676.667969" xlink:href="#h"/>
  <use x="510.027344" y="676.667969" xlink:href="#u"/>
  <use x="551.402344" y="676.667969" xlink:href="#e"/>
  <use x="579.410156" y="676.667969" xlink:href="#a"/>
  <use x="598" y="676.667969" xlink:href="#c"/>
  <use x="624.71875" y="676.667969" xlink:href="#g"/>
  <use x="647.769531" y="676.667969" xlink:href="#t"/>
  <use x="673.632812" y="676.667969" xlink:href="#j"/>
  <use x="70" y="715.554688" xlink:href="#s"/>
  <use x="86.917969" y="715.554688" xlink:href="#d"/>
  <use x="106.097656" y="715.554688" xlink:href="#c"/>
  <use x="132.816406" y="715.554688" xlink:href="#k"/>
  <use x="186.875" y="715.554688" xlink:href="#a"/>
  <use x="205.464844" y="715.554688" xlink:href="#i"/>
  <use x="233.152344" y="715.554688" xlink:href="#b"/>
  <use x="273.066406" y="715.554688" xlink:href="#r"/>
  <use x="305.613281" y="715.554688" xlink:href="#c"/>
  <use x="332.328125" y="715.554688" xlink:href="#q"/>
  <use x="360.015625" y="715.554688" xlink:href="#h"/>
  <use x="401.238281" y="715.554688" xlink:href="#p"/>
  <use x="429.742188" y="715.554688" xlink:href="#d"/>
  <use x="448.917969" y="715.554688" xlink:href="#c"/>
  <use x="475.636719" y="715.554688" xlink:href="#o"/>
  <use x="488.96875" y="715.554688" xlink:href="#b"/>
  <use x="515.34375" y="715.554688" xlink:href="#g"/>
  <use x="538.394531" y="715.554688" xlink:href="#a"/>
 </g>
</svg>
